<?xml version="1.0"?>
<svg xmlns="http://www.w3.org/2000/svg" xmlns:xlink="http://www.w3.org/1999/xlink" version="1.1" id="Layer_1" x="0px" y="0px" viewBox="0 0 512 512" style="enable-background:new 0 0 512 512;" xml:space="preserve" width="512px" height="512px"><g><g>
	<polygon points="327.232,226 360.562,166 304.768,166 271.438,226  " data-original="#000000" class="active-path" data-old_color="#000000" fill="#DE002B"/>
	<polygon points="417.232,226 450.562,166 394.768,166 361.438,226  " data-original="#000000" class="active-path" data-old_color="#000000" fill="#DE002B"/>
	<polygon points="237.232,226 270.562,166 210,166 210,226  " data-original="#000000" class="active-path" data-old_color="#000000" fill="#DE002B"/>
	<polygon points="451.438,226 512,226 512,166 484.768,166  " data-original="#000000" class="active-path" data-old_color="#000000" fill="#DE002B"/>
	<path d="M60,91v15H30v270h150V106h-30V91c0-24.814-20.186-45-45-45S60,66.186,60,91z M105,226c-8.284,0-15-6.716-15-15   c0-8.286,6.716-15,15-15s15,6.714,15,15C120,219.284,113.284,226,105,226z" data-original="#000000" class="active-path" data-old_color="#000000" fill="#DE002B"/>
	<rect y="406" width="210" height="60" data-original="#000000" class="active-path" data-old_color="#000000" fill="#DE002B"/>
</g></g> </svg>
