<?xml version="1.0"?>
<svg xmlns="http://www.w3.org/2000/svg" id="Layer_3" enable-background="new 0 0 64 64" height="512px" viewBox="0 0 64 64" width="512px"><g><g><path d="m27 14c0-.552-.448-1-1-1h-18c-.552 0-1 .448-1 1v41h20zm-18 11h2v2h-2zm12 6h-12v-2h12zm4 0h-2v-2h2zm0-4h-12v-2h12zm0-5c0 .553-.447 1-1 1h-14c-.553 0-1-.447-1-1v-6c0-.553.447-1 1-1h14c.553 0 1 .447 1 1z" data-original="#000000" class="active-path" data-old_color="#000000" fill="#DE002B"/><path d="m11 17h12v4h-12z" data-original="#000000" class="active-path" data-old_color="#000000" fill="#DE002B"/><circle cx="17" cy="8" r="1" data-original="#000000" class="active-path" data-old_color="#000000" fill="#DE002B"/><path d="m14 8c0-1.654 1.346-3 3-3s3 1.346 3 3-1.346 3-3 3h6v-2c0-3.309-2.691-6-6-6s-6 2.691-6 6v2h6c-1.654 0-3-1.346-3-3z" data-original="#000000" class="active-path" data-old_color="#000000" fill="#DE002B"/><path d="m60 19h-25.08c.047.328.08.66.08 1s-.033.672-.08 1h25.08c.552 0 1-.448 1-1s-.448-1-1-1z" data-original="#000000" class="active-path" data-old_color="#000000" fill="#DE002B"/><path d="m34.076 23.461c-.336.588-.755 1.122-1.241 1.588l17.457 17.457c.391.391 1.023.391 1.414 0 .19-.19.294-.44.294-.707s-.104-.518-.293-.707z" data-original="#000000" class="active-path" data-old_color="#000000" fill="#DE002B"/><path d="m29 15.101v9.798c2.279-.465 4-2.484 4-4.899s-1.721-4.434-4-4.899z" data-original="#000000" class="active-path" data-old_color="#000000" fill="#DE002B"/><path d="m30 57h-26c-.552 0-1 .448-1 1v2c0 .552.448 1 1 1h26c.552 0 1-.448 1-1v-2c0-.552-.448-1-1-1z" data-original="#000000" class="active-path" data-old_color="#000000" fill="#DE002B"/></g></g> </svg>
