<?xml version="1.0"?>
<svg xmlns="http://www.w3.org/2000/svg" id="Layer_35" enable-background="new 0 0 64 64" height="512px" viewBox="0 0 64 64" width="512px"><g><path d="m38 55h12c.552 0 1-.449 1-1v-10c0-.551-.448-1-1-1h-12c-.552 0-1 .449-1 1v10c0 .551.448 1 1 1zm6-10c1.654 0 3 1.346 3 3 0 1.302-.839 2.402-2 2.816v2.184h-2v-2.184c-1.161-.414-2-1.514-2-2.816 0-1.654 1.346-3 3-3z" data-original="#000000" class="active-path" data-old_color="#000000" fill="#DE002B"/><path d="m30.646 26.766.318-.524c.736-1.215 1.281-2.528 1.617-3.904l.146-.595 2.273-.535v-4.416l-2.273-.535-.146-.595c-.336-1.375-.881-2.689-1.617-3.904l-.318-.524 1.229-1.986-3.123-3.123-1.986 1.229-.523-.318c-1.214-.737-2.527-1.281-3.904-1.619l-.595-.146-.536-2.271h-4.416l-.535 2.272-.595.146c-1.377.337-2.69.882-3.904 1.619l-.523.318-1.987-1.23-3.123 3.123 1.229 1.986-.318.524c-.736 1.215-1.281 2.528-1.617 3.904l-.146.595-2.273.535v4.416l2.273.535.146.595c.336 1.375.881 2.689 1.617 3.904l.318.524-1.229 1.986 3.123 3.123 1.986-1.229.523.318c1.214.737 2.527 1.281 3.904 1.619l.595.146.536 2.271h4.416l.535-2.272.595-.146c1.377-.337 2.69-.882 3.904-1.619l.523-.318 1.986 1.229.249-.247 1.586-1.586 1.289-1.289zm-11.646 4.234c-6.617 0-12-5.383-12-12s5.383-12 12-12 12 5.383 12 12-5.383 12-12 12z" data-original="#000000" class="active-path" data-old_color="#000000" fill="#DE002B"/><path d="m34.41 29.046-3.41 3.41v28.544h26v-34h-23.857zm18.59-.046h2v2h-2zm0 4h2v2h-2zm0 4h2v2h-2zm-18 7c0-1.654 1.346-3 3-3v-4c0-3.309 2.691-6 6-6s6 2.691 6 6v4c1.654 0 3 1.346 3 3v10c0 1.654-1.346 3-3 3h-12c-1.654 0-3-1.346-3-3z" data-original="#000000" class="active-path" data-old_color="#000000" fill="#DE002B"/><circle cx="44" cy="48" r="1" data-original="#000000" class="active-path" data-old_color="#000000" fill="#DE002B"/><path d="m48 37c0-2.206-1.794-4-4-4s-4 1.794-4 4v4h8z" data-original="#000000" class="active-path" data-old_color="#000000" fill="#DE002B"/><path d="m58 15h-21v2h20c1.103 0 2 .897 2 2v41.816c1.161-.414 2-1.514 2-2.816v-40c0-1.654-1.346-3-3-3z" data-original="#000000" class="active-path" data-old_color="#000000" fill="#DE002B"/><path d="m19 9c-5.514 0-10 4.486-10 10s4.486 10 10 10 10-4.486 10-10-4.486-10-10-10zm0 16c-3.309 0-6-2.691-6-6s2.691-6 6-6 6 2.691 6 6-2.691 6-6 6z" data-original="#000000" class="active-path" data-old_color="#000000" fill="#DE002B"/><path d="m37 22.792-2.635.62c-.155.54-.344 1.068-.555 1.588h23.19v-6h-20zm14-1.792h2v2h-2zm-4 0h2v2h-2zm-4 0h2v2h-2z" data-original="#000000" class="active-path" data-old_color="#000000" fill="#DE002B"/><circle cx="19" cy="19" r="4" data-original="#000000" class="active-path" data-old_color="#000000" fill="#DE002B"/><path d="m27 58c0 1.302.839 2.402 2 2.816v-26.436l-2-1.237z" data-original="#000000" class="active-path" data-old_color="#000000" fill="#DE002B"/><path d="m20 55c-1.302 0-2.402.839-2.816 2h-9.184c-1.654 0-3-1.346-3-3v-6h-2v6c0 2.757 2.243 5 5 5h9.184c.414 1.161 1.514 2 2.816 2 1.654 0 3-1.346 3-3s-1.346-3-3-3z" data-original="#000000" class="active-path" data-old_color="#000000" fill="#DE002B"/><path d="m7 48c0 1.654 1.346 3 3 3h4.184c.414 1.161 1.514 2 2.816 2 1.654 0 3-1.346 3-3s-1.346-3-3-3c-1.302 0-2.402.839-2.816 2h-4.184c-.552 0-1-.449-1-1v-4h-2z" data-original="#000000" class="active-path" data-old_color="#000000" fill="#DE002B"/><path d="m7 40h2v2h-2z" data-original="#000000" class="active-path" data-old_color="#000000" fill="#DE002B"/><path d="m7 36h2v2h-2z" data-original="#000000" class="active-path" data-old_color="#000000" fill="#DE002B"/><path d="m3 44h2v2h-2z" data-original="#000000" class="active-path" data-old_color="#000000" fill="#DE002B"/><path d="m3 40h2v2h-2z" data-original="#000000" class="active-path" data-old_color="#000000" fill="#DE002B"/><path d="m3 36h2v2h-2z" data-original="#000000" class="active-path" data-old_color="#000000" fill="#DE002B"/></g> </svg>
