<?xml version="1.0"?>
<svg xmlns="http://www.w3.org/2000/svg" viewBox="0 0 64 64" width="512px" height="512px"><g><g id="Mainternace"><path d="M41,35.894V31.357a13.152,13.152,0,0,1-1.911-.792l-2.572,2.572a1,1,0,0,1-1.413,0l-4.25-4.24a1,1,0,0,1,0-1.416l2.58-2.572A13.335,13.335,0,0,1,32.643,23H29a1,1,0,0,1-1-1V16a1,1,0,0,1,1-1h3.643a13.207,13.207,0,0,1,.626-1.552L25,8.186,9,18.367V48h9V31a1,1,0,0,1,1-1H31a1,1,0,0,1,1,1V48h2A14,14,0,0,1,41,35.894Z" data-original="#000000" class="active-path" data-old_color="#000000" fill="#DE002B"/><circle cx="48" cy="55" r="1" data-original="#000000" class="active-path" data-old_color="#000000" fill="#DE002B"/><path d="M20,32V48H30V32Zm8,9H26V39h2Z" data-original="#000000" class="active-path" data-old_color="#000000" fill="#DE002B"/><path d="M6,50a.965.965,0,0,0-.694.287A.978.978,0,0,0,5,51a1,1,0,0,0,1,1H34.59a13.8,13.8,0,0,1-.43-2Z" data-original="#000000" class="active-path" data-old_color="#000000" fill="#DE002B"/><path d="M25.537,6.156l5.111,3.253a.985.985,0,0,1,.205-.306l.728-.728L25,4.186,4,17.549v1.63L24.463,6.156A1,1,0,0,1,25.537,6.156Z" data-original="#000000" class="active-path" data-old_color="#000000" fill="#DE002B"/><path d="M36,48A12,12,0,1,0,48,36,12.013,12.013,0,0,0,36,48ZM48,58a3,3,0,1,1,3-3A3,3,0,0,1,48,58Zm3.53-6.536a4.988,4.988,0,0,0-7.06,0l-1.421-1.408a6.989,6.989,0,0,1,9.9,0Zm2.833-2.827a9,9,0,0,0-12.726,0l-1.414-1.414a10.994,10.994,0,0,1,15.554,0Zm4.242-4.246-1.411,1.418a13,13,0,0,0-18.388,0L37.4,44.391a15,15,0,0,1,21.21,0Z" data-original="#000000" class="active-path" data-old_color="#000000" fill="#DE002B"/><path d="M55.643,16.255a11.388,11.388,0,0,0-1.177-2.841,1,1,0,0,1,.158-1.212l2.4-2.393L54.191,6.975,51.8,9.376a1,1,0,0,1-1.212.158,11.447,11.447,0,0,0-2.841-1.178A1,1,0,0,1,47,7.39V4H43V7.39a1,1,0,0,1-.745.966,11.447,11.447,0,0,0-2.841,1.178A1,1,0,0,1,38.2,9.376l-2.393-2.4L32.975,9.809l2.4,2.393a1,1,0,0,1,.158,1.212,11.388,11.388,0,0,0-1.177,2.841A1,1,0,0,1,33.39,17H30v4h3.39a1,1,0,0,1,.967.745,11.388,11.388,0,0,0,1.177,2.841,1,1,0,0,1-.158,1.212l-2.4,2.392,2.833,2.827L38.2,28.623a1,1,0,0,1,1.211-.157,11.447,11.447,0,0,0,2.841,1.178A1,1,0,0,1,43,30.61v4.329a13.863,13.863,0,0,1,4-.888V30.61a1,1,0,0,1,.745-.966,11.447,11.447,0,0,0,2.841-1.178,1,1,0,0,1,1.211.157l2.394,2.394,2.833-2.827-2.4-2.392a1,1,0,0,1-.158-1.212,11.388,11.388,0,0,0,1.177-2.841A1,1,0,0,1,56.61,21H60V17H56.61A1,1,0,0,1,55.643,16.255ZM45,28a9,9,0,1,1,9-9A9.01,9.01,0,0,1,45,28Z" data-original="#000000" class="active-path" data-old_color="#000000" fill="#DE002B"/><circle cx="45" cy="19" r="7" data-original="#000000" class="active-path" data-old_color="#000000" fill="#DE002B"/></g></g> </svg>
